<?xml version="1.0" standalone="no"?>
<!DOCTYPE svg PUBLIC "-//W3C//DTD SVG 20010904//EN"
 "http://www.w3.org/TR/2001/REC-SVG-20010904/DTD/svg10.dtd">
<svg version="1.0" xmlns="http://www.w3.org/2000/svg"
 width="2000.000000pt" height="918.000000pt" viewBox="0 0 2000.000000 918.000000"
 preserveAspectRatio="xMidYMid meet">

<g transform="translate(0.000000,918.000000) scale(0.100000,-0.100000)"
fill="#000000" stroke="none">
<path d="M9590 8440 c-610 -40 -1159 -182 -1685 -434 -297 -143 -442 -233
-845 -526 -497 -360 -654 -460 -815 -517 l-80 -28 -1960 -6 c-2125 -6 -1986
-2 -2145 -57 -473 -164 -979 -787 -1199 -1476 -85 -267 -121 -493 -121 -766 0
-434 94 -788 337 -1274 290 -578 612 -907 998 -1017 l80 -23 2000 -6 2000 -5
58 -22 c173 -66 353 -187 832 -555 266 -205 386 -287 579 -397 493 -280 1037
-465 1593 -540 246 -34 386 -43 653 -43 394 0 710 38 1075 126 333 81 600 179
930 341 342 167 551 303 1160 754 241 178 398 261 565 297 19 4 953 8 2075 9
2261 1 2098 -4 2307 66 128 42 345 156 449 233 233 175 434 472 593 872 230
582 296 1306 175 1899 -68 329 -277 761 -507 1046 -80 99 -239 250 -338 321
-159 113 -338 186 -509 207 -62 8 -720 11 -2145 11 -2044 0 -2056 0 -2130 21
-90 24 -244 97 -357 167 -45 28 -185 122 -310 210 -511 356 -765 516 -1036
651 -498 246 -998 390 -1549 446 -179 18 -562 26 -728 15z m770 -104 c519 -61
988 -198 1445 -421 290 -142 529 -292 1100 -689 320 -223 472 -308 653 -363
53 -16 196 -18 2192 -23 l2135 -5 77 -22 c269 -77 528 -278 744 -579 35 -49
64 -94 64 -99 0 -8 -265 -145 -388 -201 -2 -1 21 -75 52 -165 183 -550 224
-1188 115 -1839 -41 -247 -140 -592 -214 -742 -63 -129 -132 -178 -261 -187
l-85 -6 26 -52 c48 -95 126 -138 250 -137 168 1 242 85 353 405 33 94 93 319
118 436 4 22 8 23 135 23 l130 0 -4 -28 c-19 -119 -191 -492 -308 -668 -194
-290 -468 -483 -828 -582 l-96 -27 -2090 -5 c-2088 -5 -2090 -5 -2155 -26
-194 -63 -313 -131 -600 -345 -518 -387 -743 -532 -1073 -695 -596 -294 -1194
-442 -1862 -460 -856 -24 -1683 189 -2405 620 -155 92 -204 127 -632 450 -387
293 -469 349 -601 411 -185 87 39 79 -2207 85 l-1995 5 -75 23 c-315 98 -588
360 -833 803 -74 134 -180 360 -192 412 l-7 27 196 0 c108 0 196 2 196 5 0 3
-16 37 -36 77 -94 186 -174 530 -174 747 0 44 -3 51 -22 56 -60 13 -364 75
-371 75 -10 0 -2 153 14 285 67 549 334 1106 726 1516 166 173 319 283 484
348 164 64 50 61 2141 61 2102 0 1966 -4 2133 65 143 59 303 161 660 419 535
387 603 431 920 586 536 262 1034 395 1670 444 120 9 657 -3 785 -18z"/>
<path d="M17755 5666 c-65 -26 -90 -31 -133 -28 l-54 5 5 -29 c3 -16 12 -59
21 -96 31 -135 39 -208 45 -428 5 -191 8 -225 21 -225 62 0 166 407 177 693 3
78 4 142 2 141 -2 -1 -40 -15 -84 -33z"/>
<path d="M10924 5644 c40 -158 106 -567 130 -809 49 -484 49 -1123 1 -1560
-20 -172 -57 -425 -85 -565 -11 -58 -20 -111 -20 -117 0 -10 28 -13 109 -13
l109 0 6 28 c23 109 71 497 103 832 22 232 26 1064 5 1280 -22 238 -63 541
-94 705 -17 88 -33 173 -36 188 -6 37 -27 44 -140 48 -90 4 -93 3 -88 -17z"/>
<path d="M9813 5653 c-75 -3 -94 -7 -102 -21 -20 -39 -67 -322 -97 -587 -19
-162 -26 -620 -11 -708 l8 -49 277 7 c152 4 279 9 281 11 2 2 6 96 9 209 9
382 -35 835 -107 1103 l-12 42 -77 -2 c-42 -1 -119 -4 -169 -5z"/>
<path d="M2531 5603 c-23 -46 -83 -104 -131 -128 -19 -10 -62 -36 -95 -58
-258 -175 -365 -422 -365 -848 0 -188 17 -266 86 -400 60 -116 175 -240 330
-355 150 -111 200 -174 238 -303 21 -70 20 -129 -1 -205 -22 -80 -93 -154
-173 -182 -86 -30 -251 -26 -353 8 -74 25 -77 25 -60 6 34 -38 189 -134 267
-167 200 -83 358 -93 483 -30 40 20 79 49 97 72 28 35 29 39 13 48 -55 31
-144 244 -191 459 -19 86 -19 86 -64 123 l-34 27 32 0 c28 0 32 3 27 23 -26
102 -57 430 -57 593 l0 111 -142 7 c-208 11 -192 2 -185 106 12 170 65 344
137 455 44 68 149 174 221 222 l46 32 32 132 c19 73 44 164 57 202 13 39 24
74 24 79 0 4 -49 8 -110 8 l-110 0 -19 -37z"/>
<path d="M3468 5538 c-11 -300 35 -858 77 -914 12 -17 13 -17 23 2 5 10 37
143 71 295 34 152 76 326 95 385 32 104 66 266 66 312 0 22 -3 22 -164 22
l-164 0 -4 -102z"/>
<path d="M4646 5632 c-14 -22 -69 -229 -90 -341 -45 -229 -59 -407 -60 -756 0
-421 26 -637 126 -1040 42 -169 49 -211 45 -270 -4 -82 -33 -155 -80 -203 -36
-38 -115 -82 -147 -82 -27 0 -25 -18 10 -73 127 -200 426 -155 495 75 33 113
11 230 -74 398 -100 196 -159 406 -197 705 -23 178 -26 739 -6 910 27 219 84
490 131 628 l20 57 -84 0 c-46 0 -86 -4 -89 -8z"/>
<path d="M5835 5609 c-22 -17 -99 -59 -172 -95 -105 -50 -143 -75 -187 -119
-98 -97 -146 -231 -146 -404 l0 -78 98 -6 c53 -3 118 -13 144 -20 l47 -15 16
73 c29 134 128 251 270 321 l74 36 11 68 c6 36 22 112 34 168 l23 102 -86 0
c-80 -1 -89 -3 -126 -31z"/>
<path d="M6695 5628 c-15 -43 -57 -244 -75 -363 -27 -182 -37 -496 -21 -671
23 -242 82 -519 156 -734 72 -207 194 -400 252 -400 25 0 25 2 20 43 -4 24
-27 100 -52 168 -95 254 -158 512 -186 754 -14 127 -17 444 -6 625 9 154 50
437 82 563 l7 27 -86 0 c-60 0 -88 -4 -91 -12z"/>
<path d="M7516 5453 c-57 -298 -69 -429 -70 -758 0 -215 5 -329 18 -440 34
-291 96 -577 187 -861 49 -153 66 -184 98 -184 51 0 53 58 7 280 -74 356 -106
641 -113 1031 -7 375 18 709 78 1014 10 55 19 101 19 103 0 1 -42 2 -94 2
l-94 0 -36 -187z"/>
<path d="M8556 5532 c-14 -60 -37 -178 -51 -263 -109 -669 -97 -1311 42 -2214
29 -191 34 -248 30 -335 -3 -58 -8 -113 -12 -122 -7 -17 3 -18 130 -18 125 0
136 1 131 18 -25 85 -98 536 -120 747 -41 391 -47 1071 -12 1440 22 222 85
652 122 828 l6 27 -120 0 -120 0 -26 -108z"/>
<path d="M11970 5631 c0 -4 18 -77 39 -162 78 -305 122 -584 141 -903 5 -99
12 -181 14 -183 7 -7 112 88 163 149 64 75 136 216 165 323 18 67 22 109 22
260 1 181 -10 264 -47 370 l-14 40 -154 22 c-85 12 -155 22 -157 22 -2 1 -10
17 -18 36 l-14 35 -70 0 c-39 0 -70 -4 -70 -9z"/>
<path d="M13214 5623 c38 -124 59 -315 58 -538 0 -451 -105 -805 -321 -1092
-130 -172 -393 -390 -662 -547 l-66 -38 -12 -132 c-19 -203 -49 -408 -81 -550
-17 -72 -30 -134 -30 -138 0 -5 62 -7 137 -6 l138 3 17 90 c14 75 68 481 68
513 0 5 33 29 73 52 181 107 384 256 505 371 l63 59 163 0 163 0 21 103 c64
305 92 538 99 832 5 227 -9 474 -38 661 -10 66 -13 72 -38 77 -23 5 -29 14
-40 59 -8 29 -29 95 -49 146 l-35 92 -69 0 c-61 0 -69 -2 -64 -17z"/>
<path d="M14083 5618 c3 -13 17 -72 31 -133 36 -154 49 -295 41 -460 -8 -182
8 -208 60 -105 28 56 81 236 95 326 9 55 7 70 -16 140 -14 44 -44 118 -67 167
l-40 87 -55 0 c-51 0 -54 -1 -49 -22z"/>
<path d="M14994 5623 c38 -119 78 -332 103 -538 25 -210 25 -700 0 -905 -39
-313 -91 -553 -173 -792 -100 -294 -169 -375 -325 -386 -65 -4 -69 -6 -63 -26
38 -125 179 -197 326 -167 116 24 181 104 264 326 43 115 54 155 54 203 0 33
15 132 34 219 38 172 77 419 98 608 24 225 12 894 -18 996 -2 9 -13 19 -23 22
-12 3 -21 18 -25 42 -11 59 -53 201 -92 313 l-36 102 -65 0 c-57 0 -64 -2 -59
-17z"/>
<path d="M15830 5632 c0 -4 11 -56 24 -115 23 -100 35 -185 51 -357 3 -36 10
-72 15 -80 14 -23 55 23 101 114 31 63 38 86 33 110 -12 56 -55 190 -86 264
l-30 72 -54 0 c-30 0 -54 -3 -54 -8z"/>
<path d="M16755 5583 c-21 -203 -44 -311 -96 -460 -65 -184 -143 -309 -282
-450 -116 -118 -115 -107 -22 -212 120 -136 194 -267 255 -450 70 -209 106
-462 98 -677 -5 -129 -26 -189 -91 -252 -52 -51 -102 -72 -172 -74 -30 -1 -55
-5 -55 -10 0 -20 41 -85 72 -115 79 -76 200 -95 296 -47 60 30 96 69 129 141
l24 52 -39 39 c-28 28 -43 54 -52 91 -15 62 -9 109 32 256 29 108 33 183 12
238 -5 14 0 17 23 17 29 0 30 1 51 103 33 161 60 329 78 497 21 188 24 639 6
810 -18 169 -43 330 -52 330 -4 0 -10 28 -13 63 -3 34 -10 86 -17 115 l-12 52
-83 0 -84 0 -6 -57z"/>
<path d="M5847 4775 c-69 -18 -77 -22 -72 -40 30 -98 38 -181 28 -266 -27
-207 -119 -297 -333 -321 -58 -6 -106 -12 -108 -13 -2 -2 2 -42 8 -91 20 -164
70 -286 154 -369 49 -49 130 -96 188 -109 l27 -6 -24 52 -25 53 206 3 c190 2
206 4 201 20 -2 9 -21 69 -40 132 -75 246 -116 499 -126 790 l-6 186 -78 -21z"/>
<path d="M14462 4173 c-27 -39 -78 -143 -157 -318 -118 -265 -222 -446 -350
-610 -126 -161 -245 -245 -347 -245 -54 0 -59 -11 -33 -72 22 -54 74 -93 148
-113 84 -23 159 -16 236 21 69 34 191 156 279 279 55 78 62 93 62 135 0 27 15
98 35 161 49 157 79 278 115 469 30 162 49 320 37 320 -3 0 -14 -12 -25 -27z"/>
<path d="M17958 4183 c-21 -22 -126 -232 -193 -383 -102 -231 -215 -425 -334
-572 -128 -159 -234 -228 -348 -228 l-62 0 6 -32 c15 -80 57 -122 146 -150
166 -50 300 12 466 216 93 115 138 187 146 236 4 25 20 85 36 135 77 233 168
678 157 769 -3 28 -3 28 -20 9z"/>
<path d="M15917 4035 c-4 -8 -13 -92 -22 -187 -19 -207 -44 -337 -91 -477 -83
-249 -183 -360 -330 -364 -61 -2 -62 -9 -18 -78 50 -80 124 -119 228 -119 98
0 170 43 235 141 76 114 156 366 181 571 l10 87 -45 138 c-72 215 -132 331
-148 288z"/>
<path d="M3204 3995 c-9 -23 11 -125 77 -395 54 -219 60 -254 57 -326 -4 -67
-9 -90 -35 -135 -35 -62 -96 -113 -156 -130 -23 -7 -46 -16 -51 -20 -13 -11
39 -93 81 -128 50 -41 113 -61 193 -61 149 0 257 105 268 263 4 56 -2 100 -34
238 l-39 169 -32 11 c-49 16 -129 94 -167 162 -19 34 -51 114 -71 177 -36 111
-70 190 -81 190 -2 0 -7 -7 -10 -15z"/>
<path d="M3916 3984 c-3 -9 -13 -86 -21 -171 -16 -170 -33 -224 -88 -282 -35
-37 -99 -70 -135 -71 l-23 0 23 -41 c70 -125 216 -194 338 -159 63 18 63 16
36 128 -24 99 -38 183 -71 422 -24 172 -41 222 -59 174z"/>
<path d="M5977 3328 c4 -18 8 -67 8 -108 0 -130 -60 -218 -192 -284 -109 -55
-211 -57 -403 -7 l-108 28 21 -30 c53 -71 197 -148 363 -193 81 -23 121 -28
219 -28 116 -1 123 0 185 31 91 45 134 84 167 151 24 49 28 69 28 142 0 76 -3
91 -30 138 -39 72 -121 145 -190 171 -75 28 -78 27 -68 -11z"/>
<path d="M9600 3270 c0 -104 39 -387 81 -587 l22 -103 104 0 c95 0 104 2 99
18 -12 39 -55 420 -56 495 0 4 69 7 154 7 l154 0 6 63 c4 34 9 79 12 100 l6
37 -291 0 -291 0 0 -30z"/>
<path d="M360 6120 c-93 -185 -209 -498 -258 -695 -179 -713 -115 -1431 190
-2134 118 -272 249 -518 394 -736 128 -193 205 -288 363 -445 252 -252 488
-396 793 -484 194 -56 141 -54 2253 -61 l1950 -6 30 -21 c17 -12 113 -87 215
-167 567 -446 1046 -755 1437 -927 664 -292 1367 -434 2153 -434 793 0 1476
142 2144 446 370 168 846 469 1376 869 52 40 146 109 208 153 l114 82 2032 0
c1312 0 2079 4 2162 10 766 62 1420 646 1802 1610 202 508 306 1175 273 1749
-25 460 -103 790 -282 1196 l-42 95 -229 0 c-126 0 -228 -3 -226 -7 2 -5 36
-73 75 -153 226 -458 304 -846 290 -1440 -6 -259 -22 -428 -63 -650 -124 -681
-464 -1335 -859 -1653 -206 -166 -384 -257 -613 -314 -61 -16 -250 -17 -2218
-22 l-2151 -6 -85 -42 c-99 -49 -335 -204 -493 -323 -514 -389 -949 -656
-1335 -820 -994 -424 -2256 -486 -3344 -164 -608 180 -1085 452 -1891 1078
-170 132 -319 232 -386 257 -47 18 -117 19 -1987 19 -2150 0 -2020 -4 -2232
66 -125 42 -280 121 -393 201 -108 76 -313 282 -412 412 -109 144 -215 317
-312 506 -194 381 -302 699 -354 1038 -27 173 -36 507 -20 688 40 434 183 880
398 1238 25 42 48 79 50 84 2 4 -102 7 -231 7 l-236 0 -50 -100z"/>
</g>
</svg>
